<?xml version="1.0" standalone="yes"?>

<svg version="1.1" viewBox="0.0 0.0 409.86614173228344 378.244094488189" fill="none" stroke="none" stroke-linecap="square" stroke-miterlimit="10" xmlns="http://www.w3.org/2000/svg" xmlns:xlink="http://www.w3.org/1999/xlink"><clipPath id="p.0"><path d="m0 0l409.86615 0l0 378.24408l-409.86615 0l0 -378.24408z" clip-rule="nonzero"></path></clipPath><g clip-path="url(#p.0)"><path fill="#000000" fill-opacity="0.0" d="m0 0l409.86615 0l0 378.24408l-409.86615 0z" fill-rule="nonzero"></path><path fill="#9dd4ff" d="m43.692432 129.61943c-3.1878128 -29.492226 7.2780685 -58.68779 26.956608 -75.19802c19.678535 -16.510227 45.11856 -17.439598 65.525 -2.3937492l0 0c7.22818 -17.149212 20.458344 -28.98961 35.6884 -31.939548c15.230072 -2.9499378 30.671127 3.3370857 41.65236 16.959286l0 0c6.157669 -15.548307 18.248566 -25.994812 31.982147 -27.632477c13.733582 -1.6376648 27.166138 5.7652845 35.531036 19.581844l0 0c11.125 -16.48021 28.825012 -23.418985 45.441193 -17.813908c16.61618 5.605075 29.164185 22.747292 32.214417 44.009182l0 0c13.629364 4.680542 24.98233 16.578918 31.125671 32.62101c6.1433716 16.042099 6.4744873 34.654236 0.9078064 51.027695l0 0c13.421967 21.991272 16.56186 51.294678 8.247925 76.97453c-8.313934 25.67987 -26.832611 43.87802 -48.64508 47.8031c-0.15371704 24.102295 -10.6528015 46.2182 -27.450317 57.82318c-16.797516 11.60498 -37.270447 10.88678 -53.527466 -1.8777161c-6.924774 28.866547 -26.41597 50.106323 -50.052612 54.542847c-23.636642 4.436493 -47.181335 -8.725616 -60.46176 -33.799744c-16.278946 12.358948 -35.8124 15.919189 -54.193954 9.877655c-18.381546 -6.0415344 -34.06279 -21.175995 -43.506298 -41.989227l0 0c-16.634926 2.4508667 -32.718636 -8.399811 -40.268906 -27.1669c-7.55027 -18.76712 -4.959839 -41.455612 6.4856796 -56.80536l0 0c-14.839582 -10.995834 -22.41166 -32.815353 -18.76768 -54.080475c3.643981 -21.265121 17.678278 -37.157104 34.78453 -39.38884z" fill-rule="nonzero"></path><path fill="#9dd4ff" d="m558.43384 741.23267c0 5.624817 -4.5598145 10.184631 -10.184631 10.184631c-5.624817 0 -10.184631 -4.5598145 -10.184631 -10.184631c0 -5.624817 4.5598145 -10.18457 10.184631 -10.18457c5.624817 0 10.184631 4.5597534 10.184631 10.18457z" fill-rule="nonzero"></path><path fill="#9dd4ff" d="m491.14496 616.666c0 11.249573 -9.119598 20.369202 -20.369202 20.369202c-11.249603 0 -20.369202 -9.119629 -20.369202 -20.369202c0 -11.249573 9.119598 -20.369202 20.369202 -20.369202c11.249603 0 20.369202 9.119629 20.369202 20.369202z" fill-rule="nonzero"></path><path fill="#9dd4ff" d="m413.09848 474.80258c0 16.87442 -13.679382 30.553802 -30.553802 30.553802c-16.87439 0 -30.553802 -13.679382 -30.553802 -30.553802c0 -16.87439 13.679413 -30.553802 30.553802 -30.553802c16.87442 0 30.553802 13.679413 30.553802 30.553802z" fill-rule="nonzero"></path><path fill="#000000" fill-opacity="0.0" d="m50.95118 229.54564l0 0c-8.090717 0.79733276 -16.180561 -1.556488 -23.183346 -6.745407m43.63802 80.563416c-3.2534409 1.6304016 -6.6637573 2.7159119 -10.143005 3.2285156m97.54205 32.241394l0 0c-2.446991 -4.620056 -4.495743 -9.556976 -6.1113434 -14.726654m119.129105 -21.995972c-0.35980225 5.479828 -1.1777649 10.89624 -2.440216 16.158905m50.961853 -115.99957l0 0c18.342987 11.2378845 29.91861 34.73242 29.754944 60.392303m40.430573 -124.71417c-2.9706116 8.737549 -7.5055847 16.488525 -13.24939 22.645218m-18.544373 -106.67124l0 0c0.50619507 3.528492 0.740448 7.110016 0.69955444 10.694931m-85.31671 -23.170052l0 0c1.7264099 -4.9340057 4.012787 -9.528055 6.787964 -13.639099m-70.2731 20.137894l0 0c0.7043152 -4.0774803 1.808609 -8.02877 3.2874298 -11.762856m-77.79451 15.759293l0 0c4.317978 3.1836853 8.312698 7.015602 11.896423 11.4115715m-102.252495 78.27608l0 0c-0.9425888 -3.9270782 -1.6368217 -7.9418488 -2.0761948 -12.006729" fill-rule="nonzero"></path><path fill="#000000" fill-opacity="0.0" d="m56.046337 151.17403c-14.668934 0 -31.865334 5.887192 -40.392 18.593369c-12.803696 19.079681 -8.316375 54.880707 8.733341 69.726425c6.1516724 5.3564606 15.283873 9.297073 22.925318 6.9718933c2.7331123 -0.8316498 9.394352 -5.8107452 6.551773 -5.8107452c-17.8451 0 -9.070648 42.197388 2.1815681 56.941284c8.674107 11.365753 20.555477 19.955353 32.751797 26.728912c19.359596 10.751862 45.96888 11.560425 65.49889 1.1636658c5.4557343 -2.904358 11.440201 -19.866333 5.4586334 -18.593384c-11.2664795 2.3976135 -14.672195 27.37326 -6.549423 36.0231c19.720657 21.000305 52.947525 25.153137 80.784 23.242981c23.915253 -1.6410828 56.886444 -25.879333 53.493195 -51.133057c-0.37158203 -2.765442 -4.062134 -5.530487 -6.5517883 -4.6470947c-5.131836 1.8209839 -9.889801 12.965759 -5.458618 16.268585c4.5599976 3.3988647 10.820007 3.8552856 16.375885 3.485962c26.641846 -1.7710876 52.795532 -18.689362 70.9599 -39.511566c14.497864 -16.619232 19.697296 -47.955246 8.733337 -67.40163c-2.6811523 -4.7554474 -10.123901 -10.437012 -14.191986 -6.9718933c-4.49234 3.826538 8.7846985 12.550446 14.191986 10.45784c22.736633 -8.7990265 20.86029 -48.65265 19.650604 -74.373505c-1.1421204 -24.284332 -13.550354 -54.209846 -34.93573 -62.75203c-8.523865 -3.4047775 -19.71524 -4.2140427 -27.290802 1.1611481c-4.2819824 3.0382385 -6.962433 14.235634 -2.1839294 16.268578c4.327423 1.8410263 8.685822 -4.9415436 10.917267 -9.296692c9.589691 -18.716408 -10.091644 -43.999947 -25.109253 -58.10493c-24.29071 -22.814552 -67.70915 -16.689754 -97.15753 -2.3222923c-16.002136 7.8072243 -43.6671 46.4859 -26.200027 48.808243c12.435181 1.653328 23.558868 -25.096035 16.37355 -36.025608c-12.410187 -18.877098 -40.9095 -23.76328 -62.224182 -19.757032c-20.211044 3.798811 -39.948006 19.969896 -49.125343 39.51155c-4.8379745 10.301689 0.51194 35.704163 10.914909 32.539665c10.936661 -3.3268356 14.542 -30.611855 4.3678513 -36.02561c-19.705017 -10.485214 -47.37276 8.415955 -61.133392 26.728928c-11.828564 15.741722 -16.755032 60.429733 2.1815681 60.429733" fill-rule="evenodd"></path><path stroke="#4a86e8" stroke-width="4.0" stroke-linejoin="round" stroke-linecap="butt" d="m56.046337 151.17403c-14.668934 0 -31.865334 5.887192 -40.392 18.593369c-12.803696 19.079681 -8.316375 54.880707 8.733341 69.726425c6.1516724 5.3564606 15.283873 9.297073 22.925318 6.9718933c2.7331123 -0.8316498 9.394352 -5.8107452 6.551773 -5.8107452c-17.8451 0 -9.070648 42.197388 2.1815681 56.941284c8.674107 11.365753 20.555477 19.955353 32.751797 26.728912c19.359596 10.751862 45.96888 11.560425 65.49889 1.1636658c5.4557343 -2.904358 11.440201 -19.866333 5.4586334 -18.593384c-11.2664795 2.3976135 -14.672195 27.37326 -6.549423 36.0231c19.720657 21.000305 52.947525 25.153137 80.784 23.242981c23.915253 -1.6410828 56.886444 -25.879333 53.493195 -51.133057c-0.37158203 -2.765442 -4.062134 -5.530487 -6.5517883 -4.6470947c-5.131836 1.8209839 -9.889801 12.965759 -5.458618 16.268585c4.5599976 3.3988647 10.820007 3.8552856 16.375885 3.485962c26.641846 -1.7710876 52.795532 -18.689362 70.9599 -39.511566c14.497864 -16.619232 19.697296 -47.955246 8.733337 -67.40163c-2.6811523 -4.7554474 -10.123901 -10.437012 -14.191986 -6.9718933c-4.49234 3.826538 8.7846985 12.550446 14.191986 10.45784c22.736633 -8.7990265 20.86029 -48.65265 19.650604 -74.373505c-1.1421204 -24.284332 -13.550354 -54.209846 -34.93573 -62.75203c-8.523865 -3.4047775 -19.71524 -4.2140427 -27.290802 1.1611481c-4.2819824 3.0382385 -6.962433 14.235634 -2.1839294 16.268578c4.327423 1.8410263 8.685822 -4.9415436 10.917267 -9.296692c9.589691 -18.716408 -10.091644 -43.999947 -25.109253 -58.10493c-24.29071 -22.814552 -67.70915 -16.689754 -97.15753 -2.3222923c-16.002136 7.8072243 -43.6671 46.4859 -26.200027 48.808243c12.435181 1.653328 23.558868 -25.096035 16.37355 -36.025608c-12.410187 -18.877098 -40.9095 -23.76328 -62.224182 -19.757032c-20.211044 3.798811 -39.948006 19.969896 -49.125343 39.51155c-4.8379745 10.301689 0.51194 35.704163 10.914909 32.539665c10.936661 -3.3268356 14.542 -30.611855 4.3678513 -36.02561c-19.705017 -10.485214 -47.37276 8.415955 -61.133392 26.728928c-11.828564 15.741722 -16.755032 60.429733 2.1815681 60.429733" fill-rule="evenodd"></path></g></svg>

